<svg xmlns="http://www.w3.org/2000/svg" viewBox="0 0 800 800" width="800" height="800">
  <defs>
    <radialGradient id="bg" cx="50%" cy="30%" r="70%">
      <stop offset="0%" stop-color="#0d0020"/>
      <stop offset="100%" stop-color="#050508"/>
    </radialGradient>
    <radialGradient id="glow1" cx="40%" cy="40%" r="50%">
      <stop offset="0%" stop-color="#9B5CF6" stop-opacity="0.18"/>
      <stop offset="100%" stop-color="#9B5CF6" stop-opacity="0"/>
    </radialGradient>
    <radialGradient id="glow2" cx="65%" cy="65%" r="40%">
      <stop offset="0%" stop-color="#00F0FF" stop-opacity="0.10"/>
      <stop offset="100%" stop-color="#00F0FF" stop-opacity="0"/>
    </radialGradient>
    <filter id="blur"><feGaussianBlur stdDeviation="32"/></filter>
  </defs>
  <rect width="800" height="800" fill="url(#bg)"/>
  <ellipse cx="350" cy="350" rx="300" ry="260" fill="url(#glow1)" filter="url(#blur)"/>
  <ellipse cx="500" cy="500" rx="240" ry="200" fill="url(#glow2)" filter="url(#blur)"/>
  <path d="M100,400 Q200,320 300,400 Q400,480 500,400 Q600,320 700,400" fill="none" stroke="#9B5CF6" stroke-opacity="0.12" stroke-width="2"/>
  <path d="M100,450 Q200,370 300,450 Q400,530 500,450 Q600,370 700,450" fill="none" stroke="#9B5CF6" stroke-opacity="0.08" stroke-width="1.5"/>
  <path d="M100,350 Q200,270 300,350 Q400,430 500,350 Q600,270 700,350" fill="none" stroke="#00F0FF" stroke-opacity="0.07" stroke-width="1.5"/>
  <text x="400" y="410" text-anchor="middle" font-family="Arial Black, Arial, sans-serif" font-weight="900" font-size="88" letter-spacing="-1" fill="#F0F0F8" opacity="0.95">AURORA</text>
  <text x="400" y="495" text-anchor="middle" font-family="Arial Black, Arial, sans-serif" font-weight="900" font-size="88" letter-spacing="2" fill="#9B5CF6" opacity="0.9">WAVE</text>
  <rect x="220" y="514" width="360" height="2" fill="#9B5CF6" opacity="0.5" rx="1"/>
  <text x="400" y="550" text-anchor="middle" font-family="monospace" font-size="14" letter-spacing="7" fill="#9B5CF6" opacity="0.6">SUNRISE STAGE</text>
</svg>
