<svg xmlns="http://www.w3.org/2000/svg" viewBox="0 0 800 800" width="800" height="800">
  <defs>
    <radialGradient id="bg" cx="50%" cy="50%" r="70%">
      <stop offset="0%" stop-color="#00191a"/>
      <stop offset="100%" stop-color="#050508"/>
    </radialGradient>
    <radialGradient id="glow" cx="50%" cy="50%" r="50%">
      <stop offset="0%" stop-color="#00F0FF" stop-opacity="0.15"/>
      <stop offset="100%" stop-color="#00F0FF" stop-opacity="0"/>
    </radialGradient>
    <filter id="blur"><feGaussianBlur stdDeviation="28"/></filter>
  </defs>
  <rect width="800" height="800" fill="url(#bg)"/>
  <ellipse cx="400" cy="400" rx="350" ry="280" fill="url(#glow)" filter="url(#blur)"/>
  <circle cx="400" cy="400" r="300" fill="none" stroke="#00F0FF" stroke-opacity="0.06" stroke-width="1"/>
  <circle cx="400" cy="400" r="200" fill="none" stroke="#00F0FF" stroke-opacity="0.09" stroke-width="1"/>
  <circle cx="400" cy="400" r="100" fill="none" stroke="#00F0FF" stroke-opacity="0.13" stroke-width="1"/>
  <line x1="0" y1="400" x2="800" y2="400" stroke="#00F0FF" stroke-opacity="0.05" stroke-width="1"/>
  <line x1="400" y1="0" x2="400" y2="800" stroke="#00F0FF" stroke-opacity="0.05" stroke-width="1"/>
  <g opacity="0.14" transform="translate(560,640)">
    <rect x="0" y="-50" width="10" height="50" fill="#00F0FF" rx="5"/>
    <rect x="18" y="-70" width="10" height="70" fill="#00F0FF" rx="5"/>
    <rect x="36" y="-40" width="10" height="40" fill="#00F0FF" rx="5"/>
    <rect x="54" y="-80" width="10" height="80" fill="#00F0FF" rx="5"/>
    <rect x="72" y="-55" width="10" height="55" fill="#00F0FF" rx="5"/>
    <rect x="90" y="-65" width="10" height="65" fill="#00F0FF" rx="5"/>
  </g>
  <text x="400" y="380" text-anchor="middle" font-family="Arial Black, Arial, sans-serif" font-weight="900" font-size="70" letter-spacing="-1" fill="#F0F0F8" opacity="0.95">RAVEMASTER</text>
  <text x="400" y="455" text-anchor="middle" font-family="Arial Black, Arial, sans-serif" font-weight="900" font-size="90" letter-spacing="4" fill="#00F0FF" opacity="0.9">9000</text>
  <rect x="200" y="472" width="400" height="2" fill="#00F0FF" opacity="0.5" rx="1"/>
  <text x="400" y="510" text-anchor="middle" font-family="monospace" font-size="15" letter-spacing="7" fill="#00F0FF" opacity="0.65">HEADLINER · MAIN STAGE</text>
</svg>
